<svg height="512" viewBox="0 0 60 60" width="512" xmlns="http://www.w3.org/2000/svg"><g id="Page-1" fill="none" fill-rule="evenodd"><g id="005---Idea" fill="rgb(0,0,0)" fill-rule="nonzero"><path id="Shape" d="m7.051 20h-1.051c-.55228475 0-1 .4477153-1 1s.44771525 1 1 1h1.051c.33627375 3.3026309 2.28723346 6.2240142 5.209 7.8 1.0362794 2.3146938 2.4069058 4.4646366 4.068 6.381.428.543.856 1.086 1.269 1.636 2.1378532 2.5894219 3.3371557 5.8257412 3.403 9.183v2h-2c-.5522847 0-1 .4477153-1 1s.4477153 1 1 1h2v2c0 1.6568542 1.3431458 3 3 3h.037c.322 2.279 2.825 4 5.963 4s5.641-1.721 5.963-4h.037c1.6568542 0 3-1.3431458 3-3v-2h2c.5522847 0 1-.4477153 1-1s-.4477153-1-1-1h-2v-2c.0654458-3.356207 1.2636501-6.591711 3.4-9.181.413-.55.841-1.093 1.269-1.636 1.662318-1.9167817 3.0339681-4.0674185 4.071-6.383 2.9212794-1.576521 4.8720452-4.497614 5.209-7.8h1.051c.5522847 0 1-.4477153 1-1s-.4477153-1-1-1h-1.051c-.4503146-4.4044527-3.738945-7.9907187-8.088-8.82-2.7288558-3.43855437-6.56842-5.82126889-10.861-6.74v-.44c0-2.209139-1.790861-4-4-4s-4 1.790861-4 4l-.009.432c-4.2885449.92743954-8.1233352 3.31199215-10.852 6.748-4.349055.8292813-7.63768537 4.4155473-8.088 8.82zm15.685-4.564-7.612 13.333c-1.0555813-.2554293-2.047643-.7244039-2.915-1.378l7.875-13.771c.9974725.4202003 1.8995817 1.0379342 2.652 1.816zm2.264 5.564c-.0050357 4.2979103-3.4051097 7.8238312-7.7 7.985l6.735-11.785c.6339741 1.1661973.9657366 2.4726196.965 3.8zm5 37c-1.895 0-3.533-.875-3.915-2h7.83c-.382 1.125-2.015 2-3.915 2zm7-5c0 .5522847-.4477153 1-1 1h-12c-.5522847 0-1-.4477153-1-1v-5h14zm5.1-18.056c-.438.556-.876 1.112-1.3 1.675-2.1547352 2.6852496-3.4621598 5.9506782-3.756 9.381h-14.088c-.2938402-3.4303218-1.6012648-6.6957504-3.756-9.381-.423-.563-.861-1.119-1.3-1.675-1.0870737-1.3098612-2.073869-2.6997985-2.952-4.158 2.8930529.6088613 5.9071871-.0955018 8.2307953-1.9234275 2.3236081-1.8279257 3.7178143-4.5914961 3.8072047-7.5465725.7243945-.9111762 1.8532976-1.4040881 3.014-1.316 1.161387-.0887693 2.2911961.404211 3.016 1.316.0893904 2.9550764 1.4835966 5.7186468 3.8072047 7.5465725 2.3236082 1.8279257 5.3377424 2.5322888 8.2307953 1.9234275-.8787723 1.4582677-1.8662375 2.8482068-2.954 4.158zm1.985-21.861-7.357 12.868c-2.049071-2.5525451-2.3279023-6.0988247-.7029397-8.940246s4.8228492-4.3994225 8.0619397-3.927754zm-.783 15.9 6.731-11.791c1.3176647 2.4302985 1.2854099 5.3690616-.0852789 7.7698538-1.3706889 2.4007922-3.8850319 3.9224519-6.6477211 4.0231462zm5.433-13.548-7.611 13.334c-1.0555813-.2554293-2.047643-.7244039-2.915-1.378l7.875-13.771c.9980225.4201831 1.9005248 1.0382934 2.653 1.817zm-22.322-9.048c.9186963-.19887333 1.5774601-1.00707314 1.587-1.947v-.44c0-1.1045695.8954305-2 2-2s2 .8954305 2 2v.44c.0098637.94137531.6705605 1.75032396 1.591 1.948 3.2172903.69680978 6.1619147 2.31576246 8.474 4.659-4.3269746.413265-7.8935178 3.5701949-8.829 7.815-2.0042509-1.1493475-4.4677491-1.1493475-6.472 0-.9354822-4.2448051-4.5020254-7.401735-8.829-7.815 2.3132232-2.34404499 5.2592669-3.96336129 8.478-4.66zm-9.413 6.613c.3638065.002743.7269948.0304749 1.087.083l-7.359 12.868c-1.90452191-2.4031785-2.26551099-5.6843783-.92900089-8.4441268 1.33651009-2.7597484 4.13465889-4.5110191 7.20100089-4.5068732z"/><path id="Shape" d="m35.457 34.12c-.488033-.2480667-1.0848496-.0617002-1.345.42-.6968128 1.0138254-1.8869252 1.5721687-3.112 1.46-.5522847 0-1 .4477153-1 1s.4477153 1 1 1c1.9818873.1306101 3.8714373-.853884 4.9-2.553.2418809-.4889273.0440833-1.081427-.443-1.327z"/><path id="Shape" d="m1.362 16.323 1.961.39c.06587807.0129057.13287024.01927.2.019.51453327-.000004.94508279-.3904523.99523131-.9025359s-.29647417-.9786407-.80123131-1.0784641l-1.962-.39c-.35047755-.0696668-.71149896.052936-.94707095.321625-.23557199.2686891-.30990557.6426442-.195.9810001.11490557.3383558.4015934.5897081.75207095.6593749z"/><path id="Shape" d="m56.286 27.249 1.961.39c.0659475.0124207.1328933.0187806.2.019.5157092.0031386.949225-.3864226 1.0010282-.899533s-.2950985-.9814619-.8010282-1.081467l-1.961-.39c-.5417913-.1079717-1.0685283.2437087-1.1765.7855s.2437087 1.0685283.7855 1.1765z"/><path id="Shape" d="m1.556 27.658c.06711108-.0001286.13406522-.0064893.2-.019l1.962-.39c.35047756-.0698454.63707009-.3213628.75182096-.659808.11475087-.3384451.04022669-.7124002-.19550001-.981-.23572669-.2685997-.5968434-.3910374-.94732095-.321192l-1.961.39c-.50475714.0998234-.85137983.5663805-.80123131 1.0784641s.48069804.9025319.99523131.9025359z"/><path id="Shape" d="m56.48 16.732c.0671277.0002246.1341154-.0061392.2-.019l1.961-.39c.3504775-.0698454.6370701-.3213628.7518209-.659808.1147509-.3384451.0402267-.7124002-.1955-.981-.2357267-.2685997-.5968434-.3910374-.9473209-.321192l-1.961.39c-.5047571.0998234-.8513798.5663805-.8012313 1.0784641s.480698.9025319.9952313.9025359z"/><path id="Shape" d="m5.888 38.111c.1975323.0000443.39065313-.0584139.555-.168l1.663-1.111c.42655293-.3174677.53007247-.9132283.23561532-1.355979-.29445715-.4427506-.88390693-.5776429-1.34161532-.307021l-1.668 1.111c-.36586219.2449086-.52850829.7002855-.40058487 1.1215585s.51631753.7093216.95658487.7094415z"/><path id="Shape" d="m52.45 7c.1976355-.00025171.3907649-.05906047.555-.169l1.663-1.111c.2991495-.19759173.4696327-.54020728.446837-.89799673s-.2353816-.67599869-.5571887-.8340277c-.321807-.158029-.7035876-.13169389-1.0006483.06902443l-1.663 1.111c-.3668102.24458747-.5301634.700538-.4021268 1.12241403.1280366.42187604.5172499.71012626.9581268.70958597z"/><path id="Shape" d="m7 6.831c.29673668.22085025.6911496.25985718 1.02539825.10141057.33424866-.15844661.55373042-.48846305.57061067-.85797969s-.17159857-.71816952-.49000892-.90643088l-1.663-1.111c-.45912574-.30325786-1.07698958-.17862366-1.38265095.27890547-.30566137.45752912-.18426898 1.07603806.27165095 1.38409453z"/><path id="Shape" d="m53.005 35.169c-.2970607-.2007183-.6788413-.2270534-1.0006483-.0690244-.3218071.158029-.534393.4762382-.5571887.8340277-.0227957.3577894.1476875.700405.446837.8979967l1.663 1.111c.4591257.3032579 1.0769896.1786237 1.382651-.2789055.3056613-.4575291.1842689-1.076038-.271651-1.3840945z"/></g></g></svg>